{"accessors" : [{"bufferView" : 0, "byteOffset" : 0, "componentType" : 5123, "count" : 4254, "type" : "SCALAR", "max" : [3948], "min" : [0]}, {"bufferView" : 1, "byteOffset" : 0, "componentType" : 5126, "count" : 3949, "type" : "VEC3", "max" : [0.7944825887680054, 1.5249615907669067, 1.9017455577850342], "min" : [-0.7944825887680054, 0.21234698593616486, -2.383462905883789], "name" : "POSITION"}, {"bufferView" : 1, "byteOffset" : 12, "componentType" : 5126, "count" : 3949, "type" : "VEC3", "max" : [1.0000044107437134, 1.0000044107437134, 1.0000044107437134], "min" : [-1.0000044107437134, -1.0000044107437134, -1.0000044107437134], "name" : "NORMAL"}, {"bufferView" : 1, "byteOffset" : 24, "componentType" : 5126, "count" : 3949, "type" : "VEC2", "max" : [1.0000001192092896, 0.9874780774116516], "min" : [0.0033990582451224327, -1.1920928955078125E-07], "name" : "TEXCOORD_0"}, {"bufferView" : 0, "byteOffset" : 8508, "componentType" : 5123, "count" : 2667, "type" : "SCALAR", "max" : [2375], "min" : [0]}, {"bufferView" : 2, "byteOffset" : 0, "componentType" : 5126, "count" : 2376, "type" : "VEC3", "max" : [0.8597977161407471, 1.3631420135498047, 1.8707680702209473], "min" : [-0.8597977161407471, -0.013681557029485703, -2.3444361686706543], "name" : "POSITION"}, {"bufferView" : 2, "byteOffset" : 12, "componentType" : 5126, "count" : 2376, "type" : "VEC3", "max" : [1.0000044107437134, 0.9999998807907104, 0.999873161315918], "min" : [-1.0000044107437134, -1.0000001192092896, -0.9999327063560486], "name" : "NORMAL"}, {"bufferView" : 2, "byteOffset" : 24, "componentType" : 5126, "count" : 2376, "type" : "VEC2", "max" : [0.9921637773513794, 1], "min" : [0, -0.004265427589416504], "name" : "TEXCOORD_0"}, {"bufferView" : 0, "byteOffset" : 13844, "componentType" : 5123, "count" : 12936, "type" : "SCALAR", "max" : [11388], "min" : [0]}, {"bufferView" : 3, "byteOffset" : 0, "componentType" : 5126, "count" : 11389, "type" : "VEC3", "max" : [0.8740139007568359, 1.5502667427062988, 1.8977186679840088], "min" : [-0.8740139007568359, 0.02749522030353546, -2.3880465030670166], "name" : "POSITION"}, {"bufferView" : 3, "byteOffset" : 12, "componentType" : 5126, "count" : 11389, "type" : "VEC3", "max" : [1.0000044107437134, 1.0000044107437134, 1.0000044107437134], "min" : [-1.0000044107437134, -1.0000044107437134, -1.0000044107437134], "name" : "NORMAL"}, {"bufferView" : 3, "byteOffset" : 24, "componentType" : 5126, "count" : 11389, "type" : "VEC2", "max" : [1.0000001192092896, 0.9900000095367432], "min" : [-8.940696716308594E-08, -1.1920928955078125E-07], "name" : "TEXCOORD_0"}, {"bufferView" : 0, "byteOffset" : 39716, "componentType" : 5123, "count" : 702, "type" : "SCALAR", "max" : [693], "min" : [0]}, {"bufferView" : 4, "byteOffset" : 0, "componentType" : 5126, "count" : 694, "type" : "VEC3", "max" : [0.758249819278717, 1.342360019683838, 1.4756829738616943], "min" : [-0.758249819278717, 0.9032155871391296, 1.0886509418487549], "name" : "POSITION"}, {"bufferView" : 4, "byteOffset" : 12, "componentType" : 5126, "count" : 694, "type" : "VEC3", "max" : [0.9676634073257446, 0.9483721852302551, 0.9999995231628418], "min" : [-0.9676634073257446, -0.9793098568916321, -0.9999732375144958], "name" : "NORMAL"}, {"bufferView" : 4, "byteOffset" : 24, "componentType" : 5126, "count" : 694, "type" : "VEC2", "max" : [0, 1], "min" : [0, 1], "name" : "TEXCOORD_0"}], "asset" : {"generator" : "Aspose.3D 23.2", "version" : "2.0"}, "buffers" : [{"uri" : "data:application/octet-stream;base64,", "byteLength" : 699028}], "bufferViews" : [{"buffer" : 0, "byteOffset" : 0, "byteLength" : 41120, "target" : 34963}, {"buffer" : 0, "byteOffset" : 41124, "byteLength" : 136128, "byteStride" : 32, "target" : 34962}, {"buffer" : 0, "byteOffset" : 177256, "byteLength" : 85344, "byteStride" : 32, "target" : 34962}, {"buffer" : 0, "byteOffset" : 262604, "byteLength" : 413952, "byteStride" : 32, "target" : 34962}, {"buffer" : 0, "byteOffset" : 676560, "byteLength" : 22464, "byteStride" : 32, "target" : 34962}], "materials" : [{"name" : "dark", "pbrMetallicRoughness" : {"baseColorFactor" : [0.12311368435621262, 0.12523901462554932, 0.142400324344635, 1], "metallicFactor" : 0, "roughnessFactor" : 1}, "emissiveFactor" : [0, 0, 0], "alphaMode" : "OPAQUE", "doubleSided" : true}, {"name" : "dark2", "pbrMetallicRoughness" : {"baseColorFactor" : [0.05286065861582756, 0.0423114150762558, 0.033104777336120605, 1], "metallicFactor" : 0, "roughnessFactor" : 1}, "emissiveFactor" : [0, 0, 0], "alphaMode" : "OPAQUE", "doubleSided" : true}, {"name" : "dark3", "pbrMetallicRoughness" : {"baseColorFactor" : [0.08650045096874237, 0.08650045096874237, 0.08650045096874237, 1], "metallicFactor" : 0, "roughnessFactor" : 1}, "emissiveFactor" : [0, 0, 0], "alphaMode" : "OPAQUE", "doubleSided" : true}, {"name" : "green2", "pbrMetallicRoughness" : {"baseColorFactor" : [0.06071885675191879, 0.04709271341562271, 0.022033970803022385, 1], "metallicFactor" : 0, "roughnessFactor" : 1}, "emissiveFactor" : [0, 0, 0], "alphaMode" : "OPAQUE", "doubleSided" : true}], "meshes" : [{"primitives" : [{"attributes" : {"POSITION" : 1, "NORMAL" : 2, "TEXCOORD_0" : 3}, "indices" : 0, "material" : 0, "mode" : 4}, {"attributes" : {"POSITION" : 5, "NORMAL" : 6, "TEXCOORD_0" : 7}, "indices" : 4, "material" : 1, "mode" : 4}, {"attributes" : {"POSITION" : 9, "NORMAL" : 10, "TEXCOORD_0" : 11}, "indices" : 8, "material" : 2, "mode" : 4}, {"attributes" : {"POSITION" : 13, "NORMAL" : 14, "TEXCOORD_0" : 15}, "indices" : 12, "material" : 3, "mode" : 4}]}], "nodes" : [{"matrix" : [-1.596062559667844E-07, 0, 1.1879103587716002, 0, 0, 1.1879101991653442, 0, 0, -1.1879103587716002, 0, -1.596062559667844E-07, 0, 0, 0, 0, 1], "mesh" : 0, "name" : "armored car7"}], "scene" : 0, "scenes" : [{"nodes" : [0]}]}