{
    "asset" : {
        "generator" : "Khronos glTF Blender I/O v3.3.27",
        "version" : "2.0"
    },
    "scene" : 0,
    "scenes" : [
        {
            "name" : "Scene",
            "nodes" : [
                0
            ]
        }
    ],
    "nodes" : [
        {
            "mesh" : 0,
            "name" : "armored car7",
            "rotation" : [
                0,
                0.7071068286895752,
                0,
                0.7071067094802856
            ],
            "scale" : [
                1.1879103183746338,
                1.1879101991653442,
                1.1879103183746338
            ]
        }
    ],
    "materials" : [
        {
            "doubleSided" : true,
            "name" : "dark",
            "pbrMetallicRoughness" : {
                "baseColorFactor" : [
                    0.12311368435621262,
                    0.12523901462554932,
                    0.142400324344635,
                    1
                ],
                "metallicFactor" : 0
            }
        },
        {
            "doubleSided" : true,
            "name" : "dark2",
            "pbrMetallicRoughness" : {
                "baseColorFactor" : [
                    0.05286065861582756,
                    0.0423114150762558,
                    0.033104777336120605,
                    1
                ],
                "metallicFactor" : 0
            }
        },
        {
            "doubleSided" : true,
            "name" : "dark3",
            "pbrMetallicRoughness" : {
                "baseColorFactor" : [
                    0.08650045096874237,
                    0.08650045096874237,
                    0.08650045096874237,
                    1
                ],
                "metallicFactor" : 0
            }
        },
        {
            "doubleSided" : true,
            "name" : "green2",
            "pbrMetallicRoughness" : {
                "baseColorFactor" : [
                    0.06071885675191879,
                    0.04709271341562271,
                    0.022033970803022385,
                    1
                ],
                "metallicFactor" : 0
            }
        }
    ],
    "meshes" : [
        {
            "name" : "Mesh_0",
            "primitives" : [
                {
                    "attributes" : {
                        "POSITION" : 0,
                        "NORMAL" : 1,
                        "TEXCOORD_0" : 2
                    },
                    "indices" : 3,
                    "material" : 0
                },
                {
                    "attributes" : {
                        "POSITION" : 4,
                        "NORMAL" : 5,
                        "TEXCOORD_0" : 6
                    },
                    "indices" : 7,
                    "material" : 1
                },
                {
                    "attributes" : {
                        "POSITION" : 8,
                        "NORMAL" : 9,
                        "TEXCOORD_0" : 10
                    },
                    "indices" : 11,
                    "material" : 2
                },
                {
                    "attributes" : {
                        "POSITION" : 12,
                        "NORMAL" : 13,
                        "TEXCOORD_0" : 14
                    },
                    "indices" : 15,
                    "material" : 3
                }
            ]
        }
    ],
    "accessors" : [
        {
            "bufferView" : 0,
            "componentType" : 5126,
            "count" : 4210,
            "max" : [
                0.7944825887680054,
                1.5249615907669067,
                1.9017455577850342
            ],
            "min" : [
                -0.7944825887680054,
                0.21234698593616486,
                -2.383462905883789
            ],
            "type" : "VEC3"
        },
        {
            "bufferView" : 1,
            "componentType" : 5126,
            "count" : 4210,
            "type" : "VEC3"
        },
        {
            "bufferView" : 2,
            "componentType" : 5126,
            "count" : 4210,
            "type" : "VEC2"
        },
        {
            "bufferView" : 3,
            "componentType" : 5123,
            "count" : 4254,
            "type" : "SCALAR"
        },
        {
            "bufferView" : 4,
            "componentType" : 5126,
            "count" : 2653,
            "max" : [
                0.8597977161407471,
                1.3631420135498047,
                1.8707680702209473
            ],
            "min" : [
                -0.8597977161407471,
                -0.013681557029485703,
                -2.3444361686706543
            ],
            "type" : "VEC3"
        },
        {
            "bufferView" : 5,
            "componentType" : 5126,
            "count" : 2653,
            "type" : "VEC3"
        },
        {
            "bufferView" : 6,
            "componentType" : 5126,
            "count" : 2653,
            "type" : "VEC2"
        },
        {
            "bufferView" : 7,
            "componentType" : 5123,
            "count" : 2667,
            "type" : "SCALAR"
        },
        {
            "bufferView" : 8,
            "componentType" : 5126,
            "count" : 12908,
            "max" : [
                0.8740139007568359,
                1.5502667427062988,
                1.8977186679840088
            ],
            "min" : [
                -0.8740139007568359,
                0.02749522030353546,
                -2.3880465030670166
            ],
            "type" : "VEC3"
        },
        {
            "bufferView" : 9,
            "componentType" : 5126,
            "count" : 12908,
            "type" : "VEC3"
        },
        {
            "bufferView" : 10,
            "componentType" : 5126,
            "count" : 12908,
            "type" : "VEC2"
        },
        {
            "bufferView" : 11,
            "componentType" : 5123,
            "count" : 12936,
            "type" : "SCALAR"
        },
        {
            "bufferView" : 12,
            "componentType" : 5126,
            "count" : 702,
            "max" : [
                0.758249819278717,
                1.342360019683838,
                1.4756829738616943
            ],
            "min" : [
                -0.758249819278717,
                0.9032155871391296,
                1.0886509418487549
            ],
            "type" : "VEC3"
        },
        {
            "bufferView" : 13,
            "componentType" : 5126,
            "count" : 702,
            "type" : "VEC3"
        },
        {
            "bufferView" : 14,
            "componentType" : 5126,
            "count" : 702,
            "type" : "VEC2"
        },
        {
            "bufferView" : 15,
            "componentType" : 5123,
            "count" : 702,
            "type" : "SCALAR"
        }
    ],
    "bufferViews" : [
        {
            "buffer" : 0,
            "byteLength" : 50520,
            "byteOffset" : 0,
            "target" : 34962
        },
        {
            "buffer" : 0,
            "byteLength" : 50520,
            "byteOffset" : 50520,
            "target" : 34962
        },
        {
            "buffer" : 0,
            "byteLength" : 33680,
            "byteOffset" : 101040,
            "target" : 34962
        },
        {
            "buffer" : 0,
            "byteLength" : 8508,
            "byteOffset" : 134720,
            "target" : 34963
        },
        {
            "buffer" : 0,
            "byteLength" : 31836,
            "byteOffset" : 143228,
            "target" : 34962
        },
        {
            "buffer" : 0,
            "byteLength" : 31836,
            "byteOffset" : 175064,
            "target" : 34962
        },
        {
            "buffer" : 0,
            "byteLength" : 21224,
            "byteOffset" : 206900,
            "target" : 34962
        },
        {
            "buffer" : 0,
            "byteLength" : 5334,
            "byteOffset" : 228124,
            "target" : 34963
        },
        {
            "buffer" : 0,
            "byteLength" : 154896,
            "byteOffset" : 233460,
            "target" : 34962
        },
        {
            "buffer" : 0,
            "byteLength" : 154896,
            "byteOffset" : 388356,
            "target" : 34962
        },
        {
            "buffer" : 0,
            "byteLength" : 103264,
            "byteOffset" : 543252,
            "target" : 34962
        },
        {
            "buffer" : 0,
            "byteLength" : 25872,
            "byteOffset" : 646516,
            "target" : 34963
        },
        {
            "buffer" : 0,
            "byteLength" : 8424,
            "byteOffset" : 672388,
            "target" : 34962
        },
        {
            "buffer" : 0,
            "byteLength" : 8424,
            "byteOffset" : 680812,
            "target" : 34962
        },
        {
            "buffer" : 0,
            "byteLength" : 5616,
            "byteOffset" : 689236,
            "target" : 34962
        },
        {
            "buffer" : 0,
            "byteLength" : 1404,
            "byteOffset" : 694852,
            "target" : 34963
        }
    ],
    "buffers" : [
        {
            "byteLength" : 696256,
            "uri" : "data:application/octet-stream;base64,"
        }
    ]
}
